<?xml version="1.0" standalone="no"?>
<!DOCTYPE svg PUBLIC "-//W3C//DTD SVG 20010904//EN"
 "http://www.w3.org/TR/2001/REC-SVG-20010904/DTD/svg10.dtd">
<svg version="1.0" xmlns="http://www.w3.org/2000/svg"
 width="838.000000pt" height="276.000000pt" viewBox="0 0 838.000000 276.000000"
 preserveAspectRatio="xMidYMid meet">
<metadata>
Created by potrace 1.16, written by Peter Selinger 2001-2019
</metadata>
<g transform="translate(0.000000,276.000000) scale(0.100000,-0.100000)"
fill="#FFFFFF" stroke="none">
<path d="M2140 2307 c-256 -90 -237 -76 -306 -222 -26 -55 -48 -101 -48 -102
-1 -1 -33 -8 -71 -16 l-70 -15 -85 43 c-126 62 -129 63 -294 6 -177 -61 -201
-73 -222 -113 -25 -48 -21 -94 16 -181 18 -43 31 -79 29 -81 -2 -1 -20 -12
-40 -24 -43 -26 -111 -97 -132 -138 -30 -58 -48 -143 -62 -284 -28 -284 -14
-367 79 -468 86 -93 132 -102 508 -107 169 -2 313 -7 320 -11 14 -9 518 -33
703 -33 158 -1 383 43 483 93 134 68 202 181 202 335 0 98 -27 349 -44 404
-19 65 -37 92 -157 246 -57 74 -142 185 -189 246 -234 306 -341 441 -360 453
-50 31 -98 25 -260 -31z m363 -306 c97 -126 182 -239 189 -251 7 -12 27 -36
43 -54 65 -70 233 -303 243 -336 6 -19 19 -117 28 -216 19 -206 15 -244 -38
-308 -46 -56 -124 -89 -283 -120 l-140 -28 -375 17 c-299 12 -377 19 -386 30
-9 12 -33 13 -143 5 -171 -11 -521 4 -561 25 -43 22 -87 83 -100 136 -9 37 -8
86 5 231 19 203 36 265 87 317 41 41 69 56 141 71 31 6 57 14 57 18 0 3 -25
68 -56 144 -31 76 -55 140 -53 142 2 2 62 23 132 46 l128 44 107 -52 107 -53
55 16 c30 8 82 15 116 15 l60 0 65 138 65 137 160 57 c87 31 162 57 165 57 3
1 85 -102 182 -228z"/>
<path d="M2171 2121 l-134 -46 -69 -145 -69 -145 -92 -1 c-54 -1 -108 -7 -132
-16 -40 -15 -40 -15 -151 37 l-110 52 -85 -29 c-46 -17 -88 -33 -92 -38 -5 -4
17 -69 48 -146 66 -159 67 -153 -43 -173 -81 -14 -125 -38 -152 -83 -29 -48
-37 -85 -53 -267 -17 -186 -10 -243 37 -289 24 -25 33 -27 168 -34 220 -11
292 -11 434 -3 113 6 133 5 140 -8 8 -12 70 -18 376 -31 l367 -16 138 31 c189
43 225 63 258 143 15 36 15 53 0 215 -9 97 -21 192 -27 211 -13 42 -162 243
-238 320 -29 30 -55 62 -56 71 -1 13 -278 383 -318 425 -8 9 -45 0 -145 -35z
m95 -63 c-28 -63 -167 -352 -170 -356 -2 -1 -29 11 -62 28 -32 16 -65 30 -71
30 -21 0 -15 20 46 149 l58 125 104 37 c57 21 107 38 111 38 4 1 -3 -23 -16
-51z m-846 -262 c0 -2 15 -37 34 -77 l33 -74 -52 -58 -53 -58 -46 117 c-26 64
-46 118 -44 119 17 14 128 41 128 31z m584 -99 c158 -79 269 -239 312 -451 12
-60 15 -111 11 -205 -4 -104 -24 -221 -39 -236 -2 -2 -55 -1 -119 2 l-116 6
25 71 c30 85 41 249 23 337 -40 190 -181 330 -336 331 -77 0 -124 -14 -194
-60 -103 -68 -186 -207 -212 -356 -11 -66 -8 -202 7 -268 6 -27 5 -28 -37 -28
-83 0 -86 3 -93 88 -13 160 35 373 115 509 43 74 180 213 239 243 92 48 149
60 248 56 82 -3 101 -7 166 -39z m624 -44 c71 -40 80 -70 103 -336 31 -367 29
-396 -41 -464 -55 -54 -103 -67 -231 -61 -60 3 -112 7 -114 9 -2 2 3 28 10 56
8 29 17 84 21 123 6 67 8 70 33 70 55 0 72 11 67 39 -3 14 -8 100 -12 189 l-6
164 -32 -5 c-115 -20 -114 -20 -121 3 -4 12 -31 58 -61 101 -51 75 -52 79 -31
84 145 34 309 62 337 58 19 -3 54 -16 78 -30z m-730 -177 c15 -8 37 -25 50
-38 l22 -25 -41 -131 -40 -132 33 -55 33 -55 58 0 59 0 -7 -47 c-8 -53 -38
-140 -59 -168 -12 -16 -20 -17 -85 -9 l-72 9 -71 153 -71 154 32 106 c18 59
44 144 57 189 28 91 25 89 102 49z m-285 -178 c21 -84 37 -159 37 -167 0 -8
-31 -78 -69 -157 -75 -156 -73 -153 -149 -138 -32 7 -42 29 -57 137 l-7 47 39
0 c38 0 41 3 62 48 23 49 23 49 7 151 -13 78 -14 106 -5 123 13 25 89 108 98
108 4 0 23 -69 44 -152z m-319 68 c-19 -41 -34 -79 -34 -84 0 -5 -15 -13 -34
-16 l-34 -7 -7 -114 c-8 -124 -7 -132 12 -127 8 2 13 -7 13 -20 0 -13 3 -52 6
-88 l6 -65 -48 3 c-99 8 -110 42 -89 274 17 196 24 224 63 261 24 23 108 51
169 56 7 1 -3 -30 -23 -73z"/>
<path d="M3643 1790 c-24 -14 -36 -32 -45 -64 l-12 -44 -112 -4 c-106 -3 -115
-5 -155 -33 -23 -17 -53 -50 -66 -75 -23 -43 -24 -53 -21 -191 3 -139 4 -147
30 -186 16 -25 44 -49 72 -62 43 -21 54 -22 278 -17 128 2 240 4 248 4 8 1 66
-2 129 -4 127 -6 164 3 185 44 l13 26 12 -22 c23 -43 63 -54 184 -48 62 3 123
4 137 4 36 -2 480 -2 510 0 14 1 79 -1 145 -4 108 -4 123 -3 152 15 39 24 53
68 53 164 l0 68 21 -19 c24 -23 62 -32 130 -32 47 0 48 -1 55 -35 10 -57 57
-120 107 -144 43 -21 53 -22 308 -17 145 2 278 4 294 3 33 -2 475 -1 515 0 14
1 82 1 153 1 70 0 135 0 145 0 9 0 122 -2 250 -4 224 -5 235 -4 278 17 28 13
56 37 72 62 26 40 27 44 27 202 0 161 0 162 -27 197 -15 20 -45 47 -65 60 -37
22 -45 23 -260 23 l-222 0 -6 34 c-8 44 -29 75 -60 89 -34 16 -456 16 -490 0
-30 -13 -50 -42 -59 -85 l-7 -31 -107 -3 c-87 -3 -114 -8 -143 -25 l-36 -22
-34 22 c-32 20 -46 21 -264 21 -207 0 -233 -2 -261 -19 -30 -18 -32 -18 -60 0
-25 17 -50 19 -265 19 -227 0 -239 -1 -266 -22 l-30 -21 -34 21 c-28 18 -52
23 -145 26 l-112 3 -6 37 c-3 21 -17 48 -32 62 -23 22 -35 24 -136 27 -150 5
-187 -13 -203 -99 l-6 -34 -214 3 -213 3 -11 45 c-18 69 -50 84 -181 84 -87 0
-111 -3 -137 -20z m217 -301 l0 -221 -29 -29 -29 -29 -202 0 c-119 0 -209 4
-221 10 -37 21 -49 63 -49 179 0 108 1 111 29 143 l29 33 138 0 137 0 0 -50 0
-50 -79 -5 -79 -5 0 -75 0 -75 85 -3 c71 -2 87 0 97 14 9 13 13 69 13 201 l0
183 80 0 80 0 0 -221z m822 24 l3 -198 90 0 90 0 0 75 0 75 -77 3 -78 3 0 54
0 55 119 0 c129 0 157 -6 190 -41 19 -21 21 -35 21 -147 0 -123 0 -124 -29
-153 l-29 -29 -207 0 -207 0 -29 29 -29 29 0 221 0 221 85 0 85 0 2 -197z
m2138 -14 c0 -302 13 -288 -267 -289 l-203 0 -32 29 c-33 29 -33 30 -36 133
-6 186 19 211 216 206 l117 -3 0 -50 0 -50 -75 -3 c-44 -2 -78 -8 -82 -15 -12
-19 -9 -122 4 -135 16 -16 160 -16 176 0 8 8 12 67 12 200 l0 188 85 0 85 0 0
-211z m230 161 l0 -50 -85 0 -85 0 0 50 0 50 85 0 85 0 0 -50z m-2662 -91 c55
-19 62 -42 62 -209 l0 -150 -80 0 -80 0 0 118 c0 64 -4 123 -8 130 -6 9 -33
12 -98 10 l-89 -3 -3 -127 -3 -128 -84 0 -85 0 0 185 0 185 219 0 c130 0 231
-4 249 -11z m1214 -18 c28 -25 32 -35 33 -82 l0 -54 -80 0 c-72 0 -80 2 -83
20 -7 38 -22 45 -94 45 -109 0 -108 1 -108 -146 l0 -125 -82 3 -83 3 -3 135
c-2 113 1 141 15 170 29 56 46 60 260 60 l193 0 32 -29z m589 -9 l29 -32 0
-150 0 -150 -85 0 -84 0 -3 128 -3 127 -90 0 -90 0 0 -75 0 -75 78 -3 77 -3 0
-49 0 -50 -136 0 -136 0 -29 29 c-29 29 -29 30 -29 149 0 107 2 122 21 146 12
15 31 32 43 37 11 4 108 7 214 6 l194 -2 29 -33z m859 -147 l0 -185 -85 0 -85
0 0 185 0 185 85 0 85 0 0 -185z m561 147 c29 -32 29 -34 29 -153 0 -120 0
-121 -29 -150 l-29 -29 -207 0 -207 0 -29 29 c-29 29 -29 30 -29 149 0 107 2
122 21 146 12 15 31 32 43 37 11 4 108 7 214 6 l194 -2 29 -33z"/>
<path d="M7284 1457 c-3 -8 -4 -43 -2 -78 l3 -64 90 0 90 0 0 75 0 75 -88 3
c-67 2 -89 0 -93 -11z"/>
</g>
</svg>
