<?xml version="1.0" standalone="no"?>
<!DOCTYPE svg PUBLIC "-//W3C//DTD SVG 20010904//EN"
 "http://www.w3.org/TR/2001/REC-SVG-20010904/DTD/svg10.dtd">
<svg version="1.0" xmlns="http://www.w3.org/2000/svg"
 width="838.000000pt" height="276.000000pt" viewBox="0 0 838.000000 276.000000"
 preserveAspectRatio="xMidYMid meet">

<g transform="translate(0.000000,276.000000) scale(0.100000,-0.100000)"
fill="#000000" stroke="none">
<path d="M2128 2293 c-107 -36 -203 -74 -216 -86 -12 -12 -45 -69 -74 -128
l-50 -108 -70 -11 -70 -12 -106 47 c-85 39 -111 46 -141 41 -57 -10 -311 -103
-332 -122 -25 -22 -42 -85 -33 -121 4 -15 20 -59 36 -98 16 -38 25 -71 20 -73
-22 -7 -101 -69 -124 -97 -66 -79 -84 -142 -108 -378 -21 -206 -18 -256 24
-351 27 -61 111 -140 164 -156 62 -19 246 -30 467 -30 116 1 233 -4 260 -9 28
-6 213 -17 412 -26 l363 -15 171 35 c114 24 190 45 229 65 101 51 174 155 194
275 9 51 -28 404 -49 472 -17 56 -9 45 -414 571 -145 189 -273 348 -284 354
-57 30 -71 28 -269 -39z m375 -292 c97 -126 182 -239 189 -251 7 -12 27 -36
43 -54 65 -70 233 -303 243 -336 6 -19 19 -117 28 -216 19 -206 15 -244 -38
-308 -46 -56 -124 -89 -283 -120 l-140 -28 -375 17 c-299 12 -377 19 -386 30
-9 12 -33 13 -143 5 -171 -11 -521 4 -561 25 -43 22 -87 83 -100 136 -9 37 -8
86 5 231 19 203 36 265 87 317 41 41 69 56 141 71 31 6 57 14 57 18 0 3 -25
68 -56 144 -31 76 -55 140 -53 142 2 2 62 23 132 46 l128 44 107 -52 107 -53
55 16 c30 8 82 15 116 15 l60 0 65 138 65 137 160 57 c87 31 162 57 165 57 3
1 85 -102 182 -228z"/>
<path d="M2171 2121 l-134 -46 -69 -145 -69 -145 -92 -1 c-54 -1 -108 -7 -132
-16 -40 -15 -40 -15 -151 37 l-110 52 -85 -29 c-46 -17 -88 -33 -92 -38 -5 -4
17 -69 48 -146 66 -159 67 -153 -43 -173 -81 -14 -125 -38 -152 -83 -29 -48
-37 -85 -53 -267 -17 -186 -10 -243 37 -289 24 -25 33 -27 168 -34 220 -11
292 -11 434 -3 113 6 133 5 140 -8 8 -12 70 -18 376 -31 l367 -16 138 31 c189
43 225 63 258 143 15 36 15 53 0 215 -9 97 -21 192 -27 211 -13 42 -162 243
-238 320 -29 30 -55 62 -56 71 -1 13 -278 383 -318 425 -8 9 -45 0 -145 -35z
m95 -63 c-28 -63 -167 -352 -170 -356 -2 -1 -29 11 -62 28 -32 16 -65 30 -71
30 -21 0 -15 20 46 149 l58 125 104 37 c57 21 107 38 111 38 4 1 -3 -23 -16
-51z m-846 -262 c0 -2 15 -37 34 -77 l33 -74 -52 -58 -53 -58 -46 117 c-26 64
-46 118 -44 119 17 14 128 41 128 31z m584 -99 c158 -79 269 -239 312 -451 12
-60 15 -111 11 -205 -4 -104 -24 -221 -39 -236 -2 -2 -55 -1 -119 2 l-116 6
25 71 c30 85 41 249 23 337 -40 190 -181 330 -336 331 -77 0 -124 -14 -194
-60 -103 -68 -186 -207 -212 -356 -11 -66 -8 -202 7 -268 6 -27 5 -28 -37 -28
-83 0 -86 3 -93 88 -13 160 35 373 115 509 43 74 180 213 239 243 92 48 149
60 248 56 82 -3 101 -7 166 -39z m624 -44 c71 -40 80 -70 103 -336 31 -367 29
-396 -41 -464 -55 -54 -103 -67 -231 -61 -60 3 -112 7 -114 9 -2 2 3 28 10 56
8 29 17 84 21 123 6 67 8 70 33 70 55 0 72 11 67 39 -3 14 -8 100 -12 189 l-6
164 -32 -5 c-115 -20 -114 -20 -121 3 -4 12 -31 58 -61 101 -51 75 -52 79 -31
84 145 34 309 62 337 58 19 -3 54 -16 78 -30z m-730 -177 c15 -8 37 -25 50
-38 l22 -25 -41 -131 -40 -132 33 -55 33 -55 58 0 59 0 -7 -47 c-8 -53 -38
-140 -59 -168 -12 -16 -20 -17 -85 -9 l-72 9 -71 153 -71 154 32 106 c18 59
44 144 57 189 28 91 25 89 102 49z m-285 -178 c21 -84 37 -159 37 -167 0 -8
-31 -78 -69 -157 -75 -156 -73 -153 -149 -138 -32 7 -42 29 -57 137 l-7 47 39
0 c38 0 41 3 62 48 23 49 23 49 7 151 -13 78 -14 106 -5 123 13 25 89 108 98
108 4 0 23 -69 44 -152z m-319 68 c-19 -41 -34 -79 -34 -84 0 -5 -15 -13 -34
-16 l-34 -7 -7 -114 c-8 -124 -7 -132 12 -127 8 2 13 -7 13 -20 0 -13 3 -52 6
-88 l6 -65 -48 3 c-99 8 -110 42 -89 274 17 196 24 224 63 261 24 23 108 51
169 56 7 1 -3 -30 -23 -73z"/>
<path d="M3664 1796 c-41 -18 -64 -52 -64 -93 l0 -33 -107 0 c-125 0 -174 -17
-216 -71 -38 -50 -50 -113 -45 -236 3 -86 8 -116 26 -150 48 -92 101 -106 373
-99 112 3 215 6 229 6 14 0 60 -2 103 -6 42 -3 97 -3 121 0 50 8 96 46 96 80
1 16 5 13 18 -14 28 -58 69 -72 187 -65 55 3 120 5 145 3 146 -7 477 -2 494 8
15 9 27 8 52 -2 49 -21 190 -18 234 4 49 24 60 53 60 162 0 92 1 94 18 74 27
-34 56 -44 131 -44 67 0 71 -1 71 -22 0 -37 46 -123 76 -145 16 -12 47 -26 70
-32 57 -15 480 -13 519 3 23 10 36 10 65 0 47 -18 411 -18 460 -1 28 10 43 10
75 -1 29 -10 66 -12 135 -7 52 3 115 5 140 3 25 -1 142 -3 260 -3 209 0 216 1
253 24 21 13 50 42 65 64 26 39 27 45 27 186 0 165 -7 187 -78 245 l-39 31
-233 0 -233 0 -5 38 c-7 54 -31 85 -74 96 -61 16 -421 12 -460 -4 -34 -15 -63
-62 -63 -105 0 -19 -6 -20 -107 -20 -87 0 -114 -4 -149 -20 l-42 -21 -38 21
c-36 18 -56 20 -259 20 -194 -1 -224 -3 -255 -19 -33 -18 -35 -18 -75 3 -37
20 -55 21 -255 21 -207 0 -216 -1 -256 -23 l-41 -24 -39 21 c-32 18 -56 21
-146 21 l-108 0 -6 40 c-8 47 -42 85 -85 94 -57 11 -179 6 -215 -9 -35 -15
-64 -61 -64 -105 0 -20 -5 -20 -225 -20 l-225 0 0 28 c0 42 -22 75 -60 94 -43
22 -189 24 -236 4z m196 -307 l0 -221 -29 -29 -29 -29 -202 0 c-119 0 -209 4
-221 10 -37 21 -49 63 -49 179 0 108 1 111 29 143 l29 33 138 0 137 0 0 -50 0
-50 -79 -5 -79 -5 0 -75 0 -75 85 -3 c71 -2 87 0 97 14 9 13 13 69 13 201 l0
183 80 0 80 0 0 -221z m822 24 l3 -198 90 0 90 0 0 75 0 75 -77 3 -78 3 0 54
0 55 119 0 c129 0 157 -6 190 -41 19 -21 21 -35 21 -147 0 -123 0 -124 -29
-153 l-29 -29 -207 0 -207 0 -29 29 -29 29 0 221 0 221 85 0 85 0 2 -197z
m2138 -14 c0 -302 13 -288 -267 -289 l-203 0 -32 29 c-33 29 -33 30 -36 133
-6 186 19 211 216 206 l117 -3 0 -50 0 -50 -75 -3 c-44 -2 -78 -8 -82 -15 -12
-19 -9 -122 4 -135 16 -16 160 -16 176 0 8 8 12 67 12 200 l0 188 85 0 85 0 0
-211z m230 161 l0 -50 -85 0 -85 0 0 50 0 50 85 0 85 0 0 -50z m-2662 -91 c55
-19 62 -42 62 -209 l0 -150 -80 0 -80 0 0 118 c0 64 -4 123 -8 130 -6 9 -33
12 -98 10 l-89 -3 -3 -127 -3 -128 -84 0 -85 0 0 185 0 185 219 0 c130 0 231
-4 249 -11z m1214 -18 c28 -25 32 -35 33 -82 l0 -54 -80 0 c-72 0 -80 2 -83
20 -7 38 -22 45 -94 45 -109 0 -108 1 -108 -146 l0 -125 -82 3 -83 3 -3 135
c-2 113 1 141 15 170 29 56 46 60 260 60 l193 0 32 -29z m589 -9 l29 -32 0
-150 0 -150 -85 0 -84 0 -3 128 -3 127 -90 0 -90 0 0 -75 0 -75 78 -3 77 -3 0
-49 0 -50 -136 0 -136 0 -29 29 c-29 29 -29 30 -29 149 0 107 2 122 21 146 12
15 31 32 43 37 11 4 108 7 214 6 l194 -2 29 -33z m859 -147 l0 -185 -85 0 -85
0 0 185 0 185 85 0 85 0 0 -185z m561 147 c29 -32 29 -34 29 -153 0 -120 0
-121 -29 -150 l-29 -29 -207 0 -207 0 -29 29 c-29 29 -29 30 -29 149 0 107 2
122 21 146 12 15 31 32 43 37 11 4 108 7 214 6 l194 -2 29 -33z"/>
<path d="M7284 1457 c-3 -8 -4 -43 -2 -78 l3 -64 90 0 90 0 0 75 0 75 -88 3
c-67 2 -89 0 -93 -11z"/>
</g>
</svg>
