<?xml version="1.0" standalone="no"?>
<!DOCTYPE svg PUBLIC "-//W3C//DTD SVG 20010904//EN"
 "http://www.w3.org/TR/2001/REC-SVG-20010904/DTD/svg10.dtd">
<svg version="1.0" xmlns="http://www.w3.org/2000/svg"
 width="3000.000000pt" height="3000.000000pt" viewBox="0 0 3000.000000 3000.000000"
 preserveAspectRatio="xMidYMid meet">

<g transform="translate(0.000000,3000.000000) scale(0.100000,-0.100000)"
fill="#FFFFFF" stroke="none">
<path d="M17520 23555 c-126 -31 -325 -91 -480 -145 -146 -50 -296 -100 -335
-112 -38 -11 -95 -32 -125 -45 -30 -14 -104 -42 -165 -63 -60 -21 -171 -59
-245 -84 -74 -26 -216 -75 -315 -108 -209 -71 -250 -85 -365 -129 -115 -43
-322 -115 -395 -139 -33 -10 -170 -57 -305 -103 l-246 -84 -124 -90 c-144
-105 -142 -103 -247 -248 -75 -105 -122 -191 -228 -425 -26 -58 -56 -123 -66
-145 -62 -136 -258 -553 -317 -675 -130 -270 -163 -340 -195 -418 -67 -158
-91 -201 -112 -202 -247 -8 -572 -63 -1040 -175 l-139 -33 -461 225 c-253 124
-581 284 -730 357 l-270 132 -228 54 -227 54 -228 -54 c-204 -48 -510 -140
-617 -185 -108 -47 -418 -152 -490 -167 -27 -5 -66 -19 -85 -29 -19 -11 -125
-51 -235 -88 -110 -38 -231 -81 -270 -96 -88 -34 -496 -176 -635 -220 -94 -31
-119 -44 -237 -130 -126 -91 -136 -101 -221 -218 -49 -67 -93 -131 -99 -142
-5 -11 -34 -122 -63 -248 l-54 -228 58 -247 c36 -151 69 -268 86 -302 15 -30
35 -80 45 -110 10 -30 27 -73 38 -95 11 -22 30 -69 43 -105 12 -36 44 -119 71
-185 27 -66 62 -154 78 -195 15 -41 46 -115 68 -165 47 -108 127 -306 127
-315 0 -4 -44 -21 -97 -38 -137 -44 -299 -136 -508 -287 -300 -216 -422 -334
-614 -590 -246 -328 -351 -507 -468 -805 -66 -168 -206 -741 -242 -990 -23
-160 -72 -676 -102 -1085 -5 -71 -18 -206 -29 -300 -10 -93 -24 -235 -30 -315
-6 -80 -17 -215 -24 -300 -8 -85 -14 -173 -15 -195 -1 -22 -6 -68 -12 -103
-22 -142 -39 -488 -29 -609 22 -275 29 -318 107 -653 135 -582 193 -709 526
-1160 136 -184 274 -319 482 -470 332 -242 422 -284 827 -381 361 -86 357 -85
1198 -119 744 -30 1007 -42 1115 -50 66 -5 190 -9 276 -10 85 0 227 -5 315
-10 506 -31 725 -33 1069 -12 94 6 262 16 375 22 113 5 230 15 260 20 30 5
165 15 300 20 135 6 293 14 351 17 l106 5 67 -45 c37 -25 74 -48 84 -51 9 -3
114 -27 232 -55 164 -38 242 -51 330 -55 313 -16 544 -26 730 -31 113 -3 320
-13 460 -21 140 -9 345 -17 455 -19 110 -2 322 -10 470 -19 149 -9 356 -18
460 -21 264 -8 617 -22 825 -34 96 -6 267 -13 380 -15 113 -3 327 -12 475 -21
149 -8 360 -17 470 -19 209 -5 507 -18 805 -35 96 -6 317 -12 490 -13 361 -3
431 5 835 97 83 19 179 39 215 45 71 12 275 51 385 75 39 8 102 19 140 25 85
13 195 35 295 59 41 10 111 26 155 34 186 38 355 71 425 83 100 17 176 34 428
94 154 36 233 61 290 88 42 21 221 111 397 199 296 149 333 171 495 289 298
218 520 459 730 794 187 297 255 470 360 915 84 352 93 427 87 670 -2 110 -12
281 -21 380 -10 99 -21 230 -27 290 -5 61 -16 173 -24 250 -49 453 -62 588
-89 918 -8 103 -18 192 -21 197 -3 6 -10 60 -15 122 -5 62 -14 160 -20 218 -6
58 -15 152 -20 210 -33 390 -25 342 -146 839 -62 252 -97 351 -185 528 -95
190 -148 268 -499 727 -113 148 -234 307 -270 355 -65 85 -448 588 -525 688
-22 28 -65 82 -96 120 -30 37 -167 217 -304 398 -251 333 -410 524 -490 591
-24 21 -45 48 -48 63 -3 15 -22 51 -43 81 -77 113 -575 770 -827 1090 -37 47
-171 222 -299 390 -127 168 -264 346 -303 395 -39 50 -136 176 -215 280 -203
268 -431 564 -515 670 -88 110 -421 547 -582 762 -66 87 -156 205 -201 263
-45 58 -142 181 -215 274 -128 165 -136 173 -262 263 -71 51 -137 95 -145 98
-78 23 -450 105 -474 104 -17 -1 -128 -25 -246 -54z m610 -1416 c184 -240 391
-510 460 -600 69 -90 267 -348 440 -574 174 -225 450 -585 615 -800 165 -214
486 -633 714 -930 228 -297 449 -585 491 -640 l77 -101 -23 -44 c-13 -25 -23
-49 -24 -55 0 -5 42 -41 93 -80 119 -90 312 -282 413 -411 43 -56 165 -213
269 -349 309 -405 1189 -1552 1269 -1655 194 -251 312 -486 380 -758 35 -140
41 -188 91 -697 24 -253 72 -739 105 -1080 33 -341 64 -663 70 -715 5 -52 14
-147 20 -210 6 -63 15 -153 21 -200 62 -562 -132 -1136 -522 -1543 -197 -207
-230 -229 -665 -442 l-379 -186 -545 -109 c-300 -60 -799 -159 -1110 -220
-311 -61 -601 -118 -645 -127 -66 -13 -119 -15 -310 -9 -126 4 -252 9 -280 11
-27 2 -122 6 -210 9 -88 3 -261 10 -385 16 -124 5 -340 14 -480 20 -140 5
-300 12 -355 15 -55 2 -158 7 -230 10 -71 3 -231 10 -355 15 -124 5 -333 14
-465 20 -132 5 -296 12 -365 15 -69 3 -336 14 -595 25 -258 11 -576 24 -705
30 -129 5 -343 14 -475 20 -132 5 -289 12 -350 15 -60 2 -171 7 -245 10 -74 3
-232 10 -350 15 -118 6 -238 10 -267 10 l-51 0 -58 121 -58 120 -60 -6 c-34
-3 -209 -14 -391 -25 -181 -11 -366 -22 -410 -25 -44 -3 -188 -12 -320 -20
-132 -8 -350 -22 -485 -30 -516 -33 -587 -36 -670 -31 -47 3 -141 8 -210 11
-69 3 -228 10 -355 15 -126 5 -291 12 -365 15 -74 3 -173 8 -220 10 -47 2
-161 7 -255 10 -93 3 -206 8 -250 10 -44 3 -195 9 -335 15 -140 5 -298 12
-350 15 -52 2 -160 7 -240 10 -631 24 -719 39 -944 151 -466 234 -775 713
-870 1350 -22 147 -30 427 -17 579 59 665 84 951 101 1130 11 116 33 365 50
555 17 190 40 446 51 570 11 124 29 281 40 350 104 634 423 1190 864 1505 177
127 369 209 595 255 121 25 419 87 630 131 80 17 160 33 178 36 20 4 31 11 28
18 -17 44 -179 444 -186 460 -5 11 -30 72 -56 135 -25 63 -106 264 -179 445
-73 182 -171 425 -218 540 -356 877 -351 865 -346 868 2 2 157 57 344 122 187
65 403 140 480 167 77 27 165 58 195 68 30 10 127 43 215 75 88 31 178 63 200
70 52 17 221 76 460 160 105 37 216 76 247 87 l58 20 62 -30 c35 -17 182 -89
328 -160 642 -314 1184 -579 1296 -633 l122 -59 137 46 c328 108 649 173 1035
210 141 13 228 15 445 10 149 -4 285 -8 304 -9 l33 -2 110 235 c60 129 192
411 293 625 101 215 199 424 218 465 19 41 82 176 140 300 58 124 155 331 215
460 l109 235 234 82 c129 45 279 98 334 117 239 83 340 118 505 176 96 34 207
72 245 86 39 13 378 132 755 264 377 131 692 238 700 237 8 -1 165 -198 350
-438z"/>
<path d="M17145 21909 c-264 -93 -525 -184 -580 -203 -104 -36 -174 -60 -485
-169 -372 -130 -656 -229 -700 -244 -25 -8 -50 -20 -56 -26 -7 -7 -112 -226
-234 -487 -122 -261 -305 -650 -405 -865 -190 -404 -390 -832 -465 -992 -24
-51 -48 -93 -54 -93 -6 0 -38 5 -71 10 -236 39 -686 54 -935 30 -340 -32 -654
-99 -980 -211 -96 -33 -191 -65 -210 -71 -33 -10 -51 -2 -385 162 -192 95
-408 200 -480 235 -71 35 -274 134 -450 220 -176 87 -366 179 -422 206 l-103
48 -167 -59 c-864 -300 -1437 -501 -1439 -503 -2 -2 10 -37 27 -78 82 -200
330 -813 609 -1504 235 -581 312 -769 321 -786 6 -13 -5 -37 -42 -95 -28 -44
-53 -81 -55 -83 -2 -2 -99 -23 -216 -48 -117 -24 -321 -66 -453 -94 -132 -28
-271 -56 -310 -64 -333 -68 -370 -78 -488 -136 -114 -56 -210 -126 -315 -230
-232 -230 -391 -522 -492 -902 -44 -168 -47 -196 -140 -1237 -74 -829 -102
-1138 -120 -1332 -41 -428 -21 -702 75 -992 70 -216 170 -383 315 -526 110
-109 212 -175 340 -219 119 -42 176 -48 600 -66 412 -16 520 -21 686 -31 80
-4 114 -3 119 6 5 8 35 9 98 6 51 -3 216 -11 367 -17 151 -6 280 -15 285 -19
12 -10 117 -18 330 -25 88 -3 255 -10 370 -15 505 -22 529 -22 765 -6 303 20
515 34 720 47 481 28 920 56 1265 79 83 5 169 10 193 10 l43 0 61 -127 c33
-71 61 -129 62 -130 3 -4 158 -12 441 -23 138 -6 302 -12 365 -15 63 -3 228
-10 365 -15 138 -6 349 -15 470 -20 515 -23 1073 -46 1540 -65 204 -8 420 -17
480 -20 137 -6 505 -22 820 -35 132 -5 287 -12 345 -15 58 -2 170 -7 250 -10
80 -3 192 -8 250 -10 884 -43 930 -40 1480 90 220 52 305 72 610 143 1180 276
1208 283 1400 384 380 197 671 552 778 948 63 233 67 397 23 835 -17 171 -43
425 -56 565 -14 140 -29 298 -35 350 -5 52 -14 145 -20 205 -6 61 -38 384 -71
719 -33 335 -66 643 -75 685 -37 179 -117 371 -215 516 -30 44 -225 303 -434
575 -210 272 -424 551 -476 620 -211 277 -412 538 -597 778 -298 387 -465 538
-767 698 l-104 55 55 111 c30 61 53 116 51 122 -3 7 -150 201 -328 432 -177
230 -372 484 -434 564 -184 240 -1174 1529 -1609 2095 -224 292 -410 531 -414
531 -4 1 -223 -74 -487 -167z m345 -323 c0 -5 -93 -200 -209 -440 -55 -115
-101 -210 -101 -211 0 -2 -37 -79 -81 -171 -45 -93 -150 -313 -234 -489 -84
-176 -212 -444 -285 -595 -121 -251 -284 -592 -380 -795 -84 -176 -371 -769
-375 -773 -2 -2 -57 29 -122 70 -340 214 -691 372 -1060 478 -40 11 -73 25
-73 30 0 5 71 161 159 347 87 186 202 433 256 548 54 116 117 251 140 300 61
128 352 748 385 820 16 33 46 99 68 146 38 81 42 87 83 102 187 66 438 153
749 262 356 124 418 146 855 300 208 73 225 78 225 71z m-7329 -2686 c314
-691 569 -1257 569 -1266 0 -4 -81 -85 -180 -181 -233 -226 -456 -478 -625
-705 -28 -37 -53 -67 -57 -68 -4 0 -16 24 -27 53 -11 28 -72 180 -136 337 -64
157 -190 467 -280 690 -90 223 -205 506 -255 630 -51 124 -93 234 -94 244 -1
17 59 40 424 168 234 81 461 161 505 177 44 16 86 29 94 28 8 -1 35 -49 62
-107z m3779 -455 c270 -37 531 -100 760 -182 1487 -536 2612 -2010 2994 -3923
216 -1081 189 -2194 -79 -3295 -42 -170 -126 -463 -141 -486 -4 -7 -31 -8 -73
-5 -36 3 -131 8 -211 11 -173 6 -591 23 -745 30 -60 2 -177 7 -260 10 -82 3
-184 7 -225 10 -41 2 -163 7 -270 11 -107 3 -199 10 -203 14 -5 4 15 59 43
121 545 1204 631 2620 231 3826 -200 602 -501 1104 -905 1509 -350 350 -717
576 -1144 705 -674 204 -1372 114 -2047 -264 -671 -375 -1279 -1083 -1650
-1922 -291 -658 -443 -1350 -461 -2105 -11 -481 60 -1036 191 -1496 19 -66 35
-126 35 -133 0 -10 -28 -12 -132 -7 -73 3 -191 9 -263 11 -71 3 -164 8 -205
10 -41 2 -163 7 -270 11 -107 3 -198 9 -202 12 -8 8 -20 81 -43 257 -117 897
-68 1847 141 2738 433 1842 1537 3393 2924 4109 483 249 1011 403 1515 442
118 9 585 -3 695 -19z m5815 -485 c556 -95 1020 -482 1205 -1005 60 -171 78
-281 105 -625 8 -107 19 -249 25 -315 13 -157 45 -543 76 -925 13 -168 29
-359 34 -425 6 -66 19 -232 30 -370 11 -137 24 -304 30 -370 13 -148 44 -527
80 -975 11 -135 27 -333 36 -440 31 -375 -3 -646 -118 -934 -228 -576 -733
-991 -1348 -1107 -166 -32 -403 -31 -1115 1 -299 14 -453 20 -673 29 -106 4
-195 11 -198 14 -4 4 16 93 45 199 161 610 249 1174 277 1791 4 81 10 149 13
151 3 2 132 7 286 10 154 3 333 9 398 12 l117 7 0 43 c0 24 -18 373 -40 776
-22 403 -56 1023 -75 1378 -48 888 -57 1044 -61 1049 -6 7 -69 -2 -914 -125
-102 -14 -210 -28 -240 -31 l-55 -4 -49 113 c-213 492 -577 1061 -933 1454
-68 76 -86 104 -64 104 8 0 200 39 491 100 154 33 532 112 768 160 226 47 414
87 597 125 636 133 688 143 803 154 131 13 329 5 467 -19z m-6059 -1521 c343
-117 607 -260 818 -444 88 -77 199 -209 236 -279 l22 -41 -87 -285 c-86 -281
-154 -503 -279 -915 -36 -115 -97 -316 -136 -445 -140 -457 -160 -525 -160
-543 0 -9 20 -50 44 -90 38 -63 201 -339 437 -736 l73 -123 155 6 c607 23 803
28 810 20 17 -18 -36 -385 -95 -653 -84 -383 -205 -725 -390 -1105 l-87 -178
-126 6 c-69 3 -193 8 -276 11 -82 3 -181 8 -220 10 -38 3 -150 8 -247 11 -98
4 -223 9 -278 13 l-100 6 -126 265 c-69 146 -141 297 -159 335 -18 39 -56 120
-85 180 -29 61 -65 137 -80 170 -15 33 -49 105 -75 160 -62 132 -273 589 -295
640 -10 22 -35 76 -55 120 -55 119 -305 676 -305 681 0 2 -9 24 -21 48 l-20
44 71 238 c39 132 82 273 95 314 13 41 87 289 165 550 78 261 150 502 160 535
11 33 92 303 180 600 268 897 276 925 284 925 2 0 70 -23 152 -51z m-2200
-589 c29 -118 142 -570 249 -1005 108 -434 238 -961 290 -1169 l95 -379 -77
-166 c-42 -91 -114 -247 -161 -346 -46 -99 -99 -211 -117 -250 -159 -340 -559
-1167 -743 -1535 l-97 -195 -35 1 c-355 9 -843 33 -851 42 -9 9 -69 189 -108
323 -97 336 -155 690 -177 1087 -3 67 -5 122 -3 122 5 1 219 9 454 18 l179 7
103 215 c56 118 141 298 188 400 l85 185 -30 195 c-17 107 -37 240 -46 295 -8
55 -21 141 -29 190 -16 100 -79 507 -130 835 l-34 215 41 75 c106 195 250 394
450 621 138 158 426 441 442 436 5 -2 33 -99 62 -217z m-2116 66 c0 -3 -43
-87 -94 -188 -171 -330 -320 -682 -437 -1028 -34 -102 -66 -189 -70 -194 -5
-6 -124 -26 -264 -47 -141 -20 -258 -39 -260 -41 -5 -5 -28 -273 -80 -923 -14
-176 -36 -457 -50 -625 -13 -168 -27 -345 -30 -395 -3 -49 -9 -103 -12 -119
l-5 -29 171 7 171 7 0 -278 c0 -375 16 -626 61 -981 24 -192 24 -183 -3 -178
-13 3 -106 8 -208 11 -467 15 -547 26 -640 84 -238 147 -390 516 -390 946 0
45 22 331 50 636 27 305 66 732 85 949 81 899 96 1059 111 1140 21 116 102
356 154 460 116 231 285 422 445 502 71 36 128 51 405 108 135 28 380 80 545
114 286 61 345 71 345 62z"/>
</g>
</svg>
