<?xml version="1.0" standalone="no"?>
<!DOCTYPE svg PUBLIC "-//W3C//DTD SVG 20010904//EN"
 "http://www.w3.org/TR/2001/REC-SVG-20010904/DTD/svg10.dtd">
<svg version="1.0" xmlns="http://www.w3.org/2000/svg"
 width="838.000000pt" height="276.000000pt" viewBox="0 0 838.000000 276.000000"
 preserveAspectRatio="xMidYMid meet">

<g transform="translate(0.000000,276.000000) scale(0.100000,-0.100000)"
fill="#000000" stroke="none">
<path d="M2128 2295 c-102 -35 -195 -69 -208 -77 -13 -7 -46 -62 -78 -129
l-57 -117 -71 -12 -72 -11 -80 40 c-124 62 -136 62 -314 0 -168 -58 -202 -81
-214 -144 -5 -30 0 -56 28 -129 l35 -91 -26 -14 c-87 -47 -152 -131 -180 -236
-28 -101 -54 -406 -41 -475 22 -118 89 -213 178 -252 29 -13 84 -24 151 -29
116 -10 505 -14 519 -5 5 3 26 -1 48 -8 21 -8 109 -17 194 -20 85 -4 256 -11
380 -17 l225 -10 160 31 c239 46 339 101 400 221 46 88 50 143 27 360 -14 128
-28 214 -41 250 -14 36 -74 124 -187 269 -91 118 -240 310 -330 427 -90 117
-172 216 -181 221 -50 26 -80 21 -265 -43z m378 -300 c98 -126 183 -240 189
-252 6 -12 21 -30 32 -40 29 -26 219 -275 239 -314 11 -22 23 -99 37 -230 22
-224 19 -258 -35 -323 -46 -57 -124 -89 -286 -120 -143 -27 -144 -27 -365 -17
-122 6 -291 13 -375 17 -114 5 -154 10 -160 20 -7 12 -31 13 -137 6 -124 -8
-464 1 -532 13 -62 11 -121 82 -137 165 -8 45 21 360 40 428 16 56 68 123 113
147 15 7 47 16 72 20 79 12 78 8 16 161 -31 76 -54 141 -51 145 2 4 62 27 132
50 l127 42 102 -52 102 -51 63 15 c35 8 88 15 119 15 l56 0 64 137 65 136 159
57 c88 32 163 57 167 56 4 0 86 -104 184 -231z"/>
<path d="M2170 2121 c-106 -37 -138 -52 -148 -72 -7 -13 -37 -76 -67 -140
l-54 -116 -98 -5 c-54 -3 -114 -12 -133 -20 -34 -15 -37 -14 -143 38 l-108 52
-94 -31 c-52 -17 -95 -35 -95 -40 0 -4 25 -69 56 -144 30 -75 52 -139 47 -144
-4 -4 -48 -17 -98 -28 -82 -18 -93 -23 -126 -60 -46 -51 -55 -88 -74 -291 -15
-171 -12 -218 19 -265 32 -49 50 -53 241 -61 99 -3 183 -8 186 -10 3 -2 76 2
163 8 140 10 158 9 169 -5 10 -14 68 -18 383 -32 l370 -16 149 36 c169 40 205
61 237 133 20 44 20 48 4 221 -9 97 -19 189 -22 205 -8 36 -201 293 -261 345
-24 22 -42 45 -39 50 5 8 -272 380 -318 428 -8 8 -44 0 -146 -36z m76 -103
c-68 -144 -148 -313 -150 -315 -1 -1 -28 11 -60 27 -32 17 -65 30 -72 30 -22
0 -18 12 46 147 l59 127 103 37 c57 20 106 37 110 38 4 0 -12 -41 -36 -91z
m-794 -296 l35 -78 -52 -57 -52 -57 -43 110 c-23 60 -42 112 -42 116 1 9 79
41 103 43 10 1 27 -25 51 -77z m487 -1 c87 -27 139 -61 211 -137 68 -73 127
-183 156 -289 32 -120 29 -332 -6 -456 l-10 -35 -112 4 c-62 2 -115 6 -117 8
-1 1 6 31 18 66 70 210 32 432 -96 569 -98 104 -234 132 -358 74 -122 -58
-225 -200 -261 -361 -16 -76 -16 -223 2 -298 l7 -29 -56 6 c-31 3 -61 8 -67
12 -15 10 -12 243 5 323 56 269 237 490 446 546 76 20 167 19 238 -3z m665
-55 c37 -15 71 -48 91 -87 14 -27 55 -449 55 -568 0 -73 -22 -123 -74 -169
-56 -49 -127 -61 -273 -46 l-61 7 14 51 c7 28 17 83 20 123 l7 72 46 3 46 3
-2 55 c-1 30 -5 117 -9 193 l-6 139 -47 -6 c-25 -4 -58 -9 -72 -12 -22 -4 -28
1 -45 38 -10 23 -38 68 -61 100 l-42 57 52 11 c29 6 90 19 137 30 104 22 180
25 224 6z m-685 -205 c53 -38 53 -37 10 -179 l-40 -132 31 -55 31 -55 60 0
c32 0 59 -4 59 -10 0 -28 -26 -122 -46 -168 l-23 -52 -73 6 c-40 4 -76 12 -80
18 -4 6 -37 76 -74 154 l-66 144 52 171 c28 95 54 180 56 189 5 16 8 16 40 3
19 -8 48 -23 63 -34z m-305 -171 c20 -80 36 -152 36 -159 0 -7 -31 -78 -70
-158 l-70 -146 -31 7 c-17 3 -42 6 -54 6 -24 0 -34 27 -50 138 l-7 42 39 0
c38 0 41 3 63 49 23 49 23 50 7 152 -12 74 -13 107 -5 122 18 34 91 108 98
100 4 -4 24 -73 44 -153z m-294 144 c0 -3 -13 -36 -30 -74 -16 -38 -30 -73
-30 -79 0 -6 -10 -11 -22 -11 -40 0 -46 -12 -53 -115 -3 -55 -9 -108 -12 -118
-3 -13 2 -20 16 -24 16 -4 21 -13 21 -38 0 -18 3 -53 6 -79 l7 -46 -50 0 c-95
0 -108 41 -88 269 22 243 38 274 153 302 82 20 82 20 82 13z"/>
<path d="M3700 1521 c0 -150 -3 -191 -14 -200 -9 -8 -45 -11 -98 -9 l-83 3 -3
70 c-4 86 6 95 95 95 l63 0 0 50 0 50 -107 0 c-197 0 -216 -15 -221 -167 -4
-123 0 -147 35 -179 26 -24 28 -24 230 -24 l205 0 29 29 29 29 0 221 0 221
-80 0 -80 0 0 -189z"/>
<path d="M4510 1500 c0 -223 6 -256 49 -280 12 -6 102 -10 221 -10 l202 0 29
29 c29 29 29 30 29 150 0 119 0 121 -29 153 l-29 33 -134 0 -133 0 -3 -47 -3
-48 68 0 c37 0 74 -4 81 -9 16 -10 20 -137 5 -152 -5 -5 -48 -9 -94 -7 l-84 3
-3 198 -2 197 -85 0 -85 0 0 -210z"/>
<path d="M6648 1513 l-3 -198 -83 -3 c-53 -2 -89 1 -98 9 -9 8 -14 33 -14 75
0 77 9 84 105 84 l66 0 -3 48 -3 47 -108 3 c-192 5 -218 -14 -225 -164 -5
-105 7 -154 45 -184 24 -18 40 -20 219 -20 117 0 202 4 217 11 52 23 57 49 57
278 l0 211 -85 0 -85 0 -2 -197z"/>
<path d="M6880 1660 l0 -50 85 0 85 0 0 50 0 50 -85 0 -85 0 0 -50z"/>
<path d="M3927 1574 c-4 -4 -7 -88 -7 -186 l0 -178 85 0 85 0 0 125 c0 146 0
145 104 145 93 0 96 -5 96 -151 l0 -119 80 0 80 0 0 150 0 150 -29 32 -29 33
-229 3 c-126 2 -232 0 -236 -4z"/>
<path d="M5158 1565 c-15 -9 -32 -24 -38 -35 -5 -10 -10 -86 -10 -169 l0 -151
80 0 80 0 0 123 c0 82 4 127 12 135 7 7 42 12 88 12 78 0 100 -9 100 -42 0
-16 10 -18 86 -18 l87 0 -5 51 c-4 38 -12 58 -32 77 l-26 27 -198 2 c-160 2
-202 0 -224 -12z"/>
<path d="M5763 1573 c-12 -2 -34 -18 -48 -35 -26 -31 -26 -34 -23 -156 3 -122
4 -124 31 -148 27 -23 35 -24 163 -24 l134 0 0 50 0 49 -77 3 -78 3 -3 70 c-2
57 0 72 14 82 20 15 141 18 162 4 10 -6 14 -42 15 -132 l2 -124 83 -3 82 -3 0
150 0 151 -29 32 -29 33 -189 2 c-103 0 -198 -1 -210 -4z"/>
<path d="M6887 1574 c-4 -4 -7 -88 -7 -186 l0 -178 85 0 85 0 -2 183 -3 182
-75 3 c-42 1 -79 0 -83 -4z"/>
<path d="M7183 1573 c-12 -2 -34 -18 -48 -34 -23 -29 -25 -37 -25 -140 0 -116
12 -158 49 -179 12 -6 102 -10 221 -10 l202 0 29 29 c29 29 29 30 29 150 0
119 0 121 -29 153 l-29 33 -189 2 c-103 0 -198 -1 -210 -4z m275 -102 c9 -5
12 -29 10 -82 l-3 -74 -90 0 -90 0 -3 70 c-2 57 0 72 14 82 20 14 141 18 162
4z"/>
</g>
</svg>
