<?xml version="1.0" standalone="no"?>
<!DOCTYPE svg PUBLIC "-//W3C//DTD SVG 20010904//EN"
 "http://www.w3.org/TR/2001/REC-SVG-20010904/DTD/svg10.dtd">
<svg version="1.0" xmlns="http://www.w3.org/2000/svg"
 width="3000.000000pt" height="3000.000000pt" viewBox="0 0 3000.000000 3000.000000"
 preserveAspectRatio="xMidYMid meet">

<g transform="translate(0.000000,3000.000000) scale(0.100000,-0.100000)"
fill="#FFFFFF" stroke="none">
<path d="M17520 23555 c-126 -31 -325 -91 -480 -145 -146 -50 -296 -100 -335
-112 -38 -11 -95 -32 -125 -45 -30 -14 -104 -42 -165 -63 -60 -21 -171 -59
-245 -84 -74 -26 -216 -75 -315 -108 -209 -71 -250 -85 -365 -129 -115 -43
-322 -115 -395 -139 -33 -10 -170 -57 -305 -103 l-246 -84 -124 -90 c-144
-105 -142 -103 -247 -248 -75 -105 -122 -191 -228 -425 -26 -58 -56 -123 -66
-145 -62 -136 -258 -553 -317 -675 -130 -270 -163 -340 -195 -418 -67 -158
-91 -201 -112 -202 -247 -8 -572 -63 -1040 -175 l-139 -33 -461 225 c-253 124
-581 284 -730 357 l-270 132 -228 54 -227 54 -228 -54 c-204 -48 -510 -140
-617 -185 -108 -47 -418 -152 -490 -167 -27 -5 -66 -19 -85 -29 -19 -11 -125
-51 -235 -88 -110 -38 -231 -81 -270 -96 -88 -34 -496 -176 -635 -220 -94 -31
-119 -44 -237 -130 -126 -91 -136 -101 -221 -218 -49 -67 -93 -131 -99 -142
-5 -11 -34 -122 -63 -248 l-54 -228 58 -247 c36 -151 69 -268 86 -302 15 -30
35 -80 45 -110 10 -30 27 -73 38 -95 11 -22 30 -69 43 -105 12 -36 44 -119 71
-185 27 -66 62 -154 78 -195 15 -41 46 -115 68 -165 47 -108 127 -306 127
-315 0 -4 -44 -21 -97 -38 -137 -44 -299 -136 -508 -287 -300 -216 -422 -334
-614 -590 -246 -328 -351 -507 -468 -805 -66 -168 -206 -741 -242 -990 -23
-160 -72 -676 -102 -1085 -5 -71 -18 -206 -29 -300 -10 -93 -24 -235 -30 -315
-6 -80 -17 -215 -24 -300 -8 -85 -14 -173 -15 -195 -1 -22 -6 -68 -12 -103
-22 -142 -39 -488 -29 -609 22 -275 29 -318 107 -653 65 -281 73 -311 124
-463 69 -208 161 -369 377 -663 l80 -109 -471 -5 -472 -5 -110 -29 c-141 -38
-229 -97 -309 -209 -49 -67 -56 -85 -85 -203 -21 -88 -31 -155 -31 -207 l0
-77 -476 0 -477 0 -116 -26 c-285 -64 -320 -78 -483 -197 -122 -90 -153 -121
-246 -250 -93 -129 -117 -182 -157 -346 -58 -236 -56 -217 -53 -786 l3 -530
38 -150 c49 -197 66 -237 154 -364 94 -134 143 -184 269 -277 135 -99 198
-126 399 -174 l170 -40 994 0 995 0 155 36 c86 20 187 47 225 61 l69 25 42
-30 c30 -21 78 -38 171 -61 l130 -31 454 0 454 0 131 31 c119 29 136 36 206
86 99 71 179 179 198 268 20 91 26 92 45 9 25 -105 96 -205 199 -278 67 -49
85 -56 203 -85 l130 -31 449 0 449 0 131 31 c93 22 142 39 172 60 49 34 48 34
104 10 24 -11 121 -38 215 -60 l171 -41 998 0 997 0 172 41 c94 23 198 54 230
69 l59 28 51 -37 c42 -31 74 -43 181 -69 l131 -32 449 0 449 0 131 31 c120 29
136 36 207 87 108 77 174 171 207 295 24 90 24 103 30 577 4 311 9 478 15 465
29 -61 120 -166 186 -215 66 -47 84 -55 194 -81 120 -29 123 -29 444 -29 l322
0 0 -34 c0 -73 78 -393 115 -470 35 -74 171 -261 231 -316 65 -61 230 -175
296 -205 29 -13 131 -42 225 -65 l173 -41 707 5 c390 3 724 5 743 5 19 0 249
-2 510 -5 l475 -5 138 32 c113 27 146 39 189 69 l52 37 60 -28 c34 -15 138
-46 233 -69 l172 -40 1013 2 1013 3 155 39 c85 21 182 51 215 66 l59 28 56
-38 c45 -31 80 -44 185 -69 l131 -31 449 0 449 0 130 31 c102 25 140 39 178
67 l49 34 59 -26 c32 -15 134 -44 227 -66 l168 -40 995 0 995 0 170 40 c203
48 282 84 437 200 89 67 121 99 188 188 116 154 152 233 200 437 l40 170 0
534 0 534 -41 171 c-47 200 -66 244 -156 374 -91 132 -130 172 -253 264 -162
121 -199 136 -491 202 l-116 26 -974 0 -974 0 -109 -25 c-60 -14 -118 -27
-128 -31 -17 -5 -18 2 -18 103 0 86 -6 133 -31 237 -29 118 -36 136 -85 203
-64 91 -174 174 -252 193 -29 6 -52 14 -52 17 0 2 48 56 107 119 197 211 440
579 538 814 77 185 204 669 241 915 20 133 16 414 -10 690 -10 99 -21 230 -27
290 -5 61 -16 173 -24 250 -49 453 -62 588 -89 918 -8 103 -18 192 -21 197 -3
6 -10 60 -15 122 -5 62 -14 160 -20 218 -6 58 -15 152 -20 210 -33 390 -25
342 -146 839 -62 252 -97 351 -185 528 -95 190 -148 268 -499 727 -113 148
-234 307 -270 355 -65 85 -448 588 -525 688 -22 28 -65 82 -96 120 -30 37
-167 217 -304 398 -251 333 -410 524 -490 591 -24 21 -45 48 -48 63 -3 15 -22
51 -43 81 -77 113 -575 770 -827 1090 -37 47 -171 222 -299 390 -127 168 -264
346 -303 395 -39 50 -136 176 -215 280 -203 268 -431 564 -515 670 -88 110
-421 547 -582 762 -66 87 -156 205 -201 263 -45 58 -142 181 -215 274 -128
165 -136 173 -262 263 -71 51 -137 95 -145 98 -78 23 -450 105 -474 104 -17
-1 -128 -25 -246 -54z m610 -1416 c184 -240 391 -510 460 -600 69 -90 267
-348 440 -574 174 -225 450 -585 615 -800 165 -214 486 -633 714 -930 228
-297 449 -585 491 -640 l77 -101 -23 -44 c-13 -25 -23 -49 -24 -55 0 -5 42
-41 93 -80 119 -90 312 -282 413 -411 43 -56 165 -213 269 -349 309 -405 1189
-1552 1269 -1655 194 -251 312 -486 380 -758 35 -140 41 -188 91 -697 24 -253
72 -739 105 -1080 33 -341 64 -663 70 -715 5 -52 14 -147 20 -210 6 -63 15
-153 21 -200 62 -562 -132 -1136 -522 -1543 -197 -207 -230 -229 -665 -442
l-379 -186 -545 -109 c-300 -60 -799 -159 -1110 -220 -311 -61 -601 -118 -645
-127 -66 -13 -119 -15 -310 -9 -126 4 -252 9 -280 11 -27 2 -122 6 -210 9 -88
3 -261 10 -385 16 -124 5 -340 14 -480 20 -140 5 -300 12 -355 15 -55 2 -158
7 -230 10 -71 3 -231 10 -355 15 -124 5 -333 14 -465 20 -132 5 -296 12 -365
15 -69 3 -336 14 -595 25 -258 11 -576 24 -705 30 -129 5 -343 14 -475 20
-132 5 -289 12 -350 15 -60 2 -171 7 -245 10 -74 3 -232 10 -350 15 -118 6
-238 10 -267 10 l-51 0 -58 121 -58 120 -60 -6 c-34 -3 -209 -14 -391 -25
-181 -11 -366 -22 -410 -25 -44 -3 -188 -12 -320 -20 -132 -8 -350 -22 -485
-30 -516 -33 -587 -36 -670 -31 -47 3 -141 8 -210 11 -69 3 -228 10 -355 15
-126 5 -291 12 -365 15 -74 3 -173 8 -220 10 -47 2 -161 7 -255 10 -93 3 -206
8 -250 10 -44 3 -195 9 -335 15 -140 5 -298 12 -350 15 -52 2 -160 7 -240 10
-631 24 -719 39 -944 151 -466 234 -775 713 -870 1350 -22 147 -30 427 -17
579 59 665 84 951 101 1130 11 116 33 365 50 555 17 190 40 446 51 570 11 124
29 281 40 350 104 634 423 1190 864 1505 177 127 369 209 595 255 121 25 419
87 630 131 80 17 160 33 178 36 20 4 31 11 28 18 -17 44 -179 444 -186 460 -5
11 -30 72 -56 135 -25 63 -106 264 -179 445 -73 182 -171 425 -218 540 -356
877 -351 865 -346 868 2 2 157 57 344 122 187 65 403 140 480 167 77 27 165
58 195 68 30 10 127 43 215 75 88 31 178 63 200 70 52 17 221 76 460 160 105
37 216 76 247 87 l58 20 62 -30 c35 -17 182 -89 328 -160 642 -314 1184 -579
1296 -633 l122 -59 137 46 c328 108 649 173 1035 210 141 13 228 15 445 10
149 -4 285 -8 304 -9 l33 -2 110 235 c60 129 192 411 293 625 101 215 199 424
218 465 19 41 82 176 140 300 58 124 155 331 215 460 l109 235 234 82 c129 45
279 98 334 117 239 83 340 118 505 176 96 34 207 72 245 86 39 13 378 132 755
264 377 131 692 238 700 237 8 -1 165 -198 350 -438z m-11241 -12861 c57 -27
133 -57 170 -68 l66 -19 -247 0 -248 -1 0 83 c0 45 -3 99 -6 120 l-7 38 84
-52 c46 -29 131 -74 188 -101z m-821 -1070 l-3 -1143 -22 -66 c-60 -175 -224
-329 -393 -368 -29 -7 -397 -11 -1055 -10 l-1010 0 -66 22 c-183 62 -317 204
-364 385 -14 55 -15 132 -13 615 l3 552 26 66 c66 171 209 298 384 344 50 13
161 15 737 15 l678 0 0 -275 0 -275 -387 0 c-372 0 -388 -1 -430 -21 -29 -14
-52 -35 -69 -64 l-25 -43 3 -334 3 -335 27 -35 c52 -68 49 -68 513 -68 446 0
444 0 492 52 55 59 53 13 53 1113 l0 1015 460 0 461 0 -3 -1142z m4482 116 c0
-1142 -5 -1067 68 -1122 l35 -27 421 -3 c232 -1 431 0 444 3 37 9 101 74 112
113 6 22 10 164 10 337 0 339 -4 356 -76 411 l-37 29 -401 5 -401 5 -3 273 -2
272 683 0 c752 0 740 1 861 -63 85 -44 193 -155 234 -239 61 -125 63 -153 60
-737 l-3 -526 -26 -66 c-35 -92 -69 -146 -126 -203 -65 -66 -136 -112 -219
-141 l-69 -25 -1016 0 c-901 0 -1022 2 -1070 16 -146 43 -280 155 -342 285
-19 41 -40 98 -46 127 -8 37 -11 400 -11 1177 l0 1125 460 0 460 0 0 -1026z
m11780 -86 c0 -1219 1 -1185 -60 -1315 -34 -73 -126 -176 -201 -224 -27 -17
-79 -42 -116 -55 l-68 -24 -1016 0 c-901 0 -1022 2 -1070 16 -146 43 -280 155
-342 285 -57 119 -59 139 -55 734 l3 540 24 60 c54 135 143 237 260 299 129
67 111 66 863 66 l678 0 0 -275 0 -275 -387 0 c-372 0 -388 -1 -430 -21 -29
-14 -52 -35 -69 -64 l-25 -43 3 -334 3 -335 27 -35 c52 -68 49 -68 513 -68
339 0 421 3 443 14 41 21 81 68 92 107 6 21 10 415 10 1046 l0 1013 460 0 460
0 0 -1112z m1270 837 l0 -275 -460 0 -460 0 0 275 0 275 460 0 460 0 0 -275z
m-10874 -75 c24 -17 44 -33 44 -36 0 -3 -10 -14 -22 -23 -21 -18 -23 -17 -90
32 -37 27 -68 51 -68 53 0 2 21 4 46 4 34 0 56 -7 90 -30z m2699 -385 c184
-48 332 -196 391 -391 15 -49 18 -96 19 -269 l0 -210 -456 -3 -457 -2 -4 107
c-4 123 -17 156 -75 200 l-36 28 -423 3 c-407 3 -425 2 -463 -17 -22 -12 -50
-35 -63 -53 l-23 -33 -3 -677 -2 -678 -460 0 -460 0 0 773 c0 494 4 788 11
817 43 188 218 365 405 409 22 5 466 9 1039 10 869 1 1009 -1 1060 -14z
m-6520 -10 c142 -37 291 -158 353 -287 62 -126 62 -127 62 -950 l0 -748 -460
0 -460 0 0 653 c0 733 2 704 -76 763 l-37 29 -420 3 c-410 3 -420 2 -463 -19
-30 -14 -52 -35 -69 -63 l-25 -43 0 -661 0 -662 -465 0 -465 0 0 1000 0 1000
1233 0 c1075 0 1240 -2 1292 -15z m9728 0 c86 -22 168 -68 235 -130 71 -65
115 -131 151 -223 l26 -67 3 -782 3 -783 -460 0 -460 0 -3 669 -3 669 -30 38
c-62 76 -50 74 -508 74 -324 0 -414 -3 -440 -14 -39 -16 -82 -61 -96 -99 -7
-18 -11 -145 -11 -343 0 -294 1 -317 20 -354 11 -21 34 -49 52 -62 l33 -23
403 -3 402 -3 0 -274 0 -275 -688 0 c-601 0 -695 2 -743 16 -187 55 -335 209
-384 399 -22 87 -22 1083 0 1168 49 189 209 351 396 401 82 22 2018 23 2102 1z
m4967 -985 l0 -1000 -460 0 -460 0 0 1000 0 1000 460 0 460 0 0 -1000z m2850
985 c187 -50 339 -198 394 -384 24 -82 24 -1120 0 -1202 -55 -187 -205 -336
-389 -385 -40 -11 -247 -14 -1055 -14 -808 0 -1015 3 -1055 14 -182 48 -333
198 -389 385 -14 47 -16 128 -16 601 0 471 2 554 16 601 54 182 207 334 390
384 76 21 2025 21 2104 0z"/>
<path d="M17145 21909 c-264 -93 -525 -184 -580 -203 -104 -36 -174 -60 -485
-169 -372 -130 -656 -229 -700 -244 -25 -8 -50 -20 -56 -26 -7 -7 -112 -226
-234 -487 -122 -261 -305 -650 -405 -865 -190 -404 -390 -832 -465 -992 -24
-51 -48 -93 -54 -93 -6 0 -38 5 -71 10 -236 39 -686 54 -935 30 -340 -32 -654
-99 -980 -211 -96 -33 -191 -65 -210 -71 -33 -10 -51 -2 -385 162 -192 95
-408 200 -480 235 -71 35 -274 134 -450 220 -176 87 -366 179 -422 206 l-103
48 -167 -59 c-864 -300 -1437 -501 -1439 -503 -2 -2 10 -37 27 -78 82 -200
330 -813 609 -1504 235 -581 312 -769 321 -786 6 -13 -5 -37 -42 -95 -28 -44
-53 -81 -55 -83 -2 -2 -99 -23 -216 -48 -117 -24 -321 -66 -453 -94 -132 -28
-271 -56 -310 -64 -333 -68 -370 -78 -488 -136 -114 -56 -210 -126 -315 -230
-232 -230 -391 -522 -492 -902 -44 -168 -47 -196 -140 -1237 -74 -829 -102
-1138 -120 -1332 -41 -428 -21 -702 75 -992 70 -216 170 -383 315 -526 110
-109 212 -175 340 -219 119 -42 176 -48 600 -66 412 -16 520 -21 686 -31 80
-4 114 -3 119 6 5 8 35 9 98 6 51 -3 216 -11 367 -17 151 -6 280 -15 285 -19
12 -10 117 -18 330 -25 88 -3 255 -10 370 -15 505 -22 529 -22 765 -6 303 20
515 34 720 47 481 28 920 56 1265 79 83 5 169 10 193 10 l43 0 61 -127 c33
-71 61 -129 62 -130 3 -4 158 -12 441 -23 138 -6 302 -12 365 -15 63 -3 228
-10 365 -15 138 -6 349 -15 470 -20 515 -23 1073 -46 1540 -65 204 -8 420 -17
480 -20 137 -6 505 -22 820 -35 132 -5 287 -12 345 -15 58 -2 170 -7 250 -10
80 -3 192 -8 250 -10 884 -43 930 -40 1480 90 220 52 305 72 610 143 1180 276
1208 283 1400 384 380 197 671 552 778 948 63 233 67 397 23 835 -17 171 -43
425 -56 565 -14 140 -29 298 -35 350 -5 52 -14 145 -20 205 -6 61 -38 384 -71
719 -33 335 -66 643 -75 685 -37 179 -117 371 -215 516 -30 44 -225 303 -434
575 -210 272 -424 551 -476 620 -211 277 -412 538 -597 778 -298 387 -465 538
-767 698 l-104 55 55 111 c30 61 53 116 51 122 -3 7 -150 201 -328 432 -177
230 -372 484 -434 564 -184 240 -1174 1529 -1609 2095 -224 292 -410 531 -414
531 -4 1 -223 -74 -487 -167z m345 -323 c0 -5 -93 -200 -209 -440 -55 -115
-101 -210 -101 -211 0 -2 -37 -79 -81 -171 -45 -93 -150 -313 -234 -489 -84
-176 -212 -444 -285 -595 -121 -251 -284 -592 -380 -795 -84 -176 -371 -769
-375 -773 -2 -2 -57 29 -122 70 -340 214 -691 372 -1060 478 -40 11 -73 25
-73 30 0 5 71 161 159 347 87 186 202 433 256 548 54 116 117 251 140 300 61
128 352 748 385 820 16 33 46 99 68 146 38 81 42 87 83 102 187 66 438 153
749 262 356 124 418 146 855 300 208 73 225 78 225 71z m-7329 -2686 c314
-691 569 -1257 569 -1266 0 -4 -81 -85 -180 -181 -233 -226 -456 -478 -625
-705 -28 -37 -53 -67 -57 -68 -4 0 -16 24 -27 53 -11 28 -72 180 -136 337 -64
157 -190 467 -280 690 -90 223 -205 506 -255 630 -51 124 -93 234 -94 244 -1
17 59 40 424 168 234 81 461 161 505 177 44 16 86 29 94 28 8 -1 35 -49 62
-107z m3779 -455 c270 -37 531 -100 760 -182 1487 -536 2612 -2010 2994 -3923
216 -1081 189 -2194 -79 -3295 -42 -170 -126 -463 -141 -486 -4 -7 -31 -8 -73
-5 -36 3 -131 8 -211 11 -173 6 -591 23 -745 30 -60 2 -177 7 -260 10 -82 3
-184 7 -225 10 -41 2 -163 7 -270 11 -107 3 -199 10 -203 14 -5 4 15 59 43
121 545 1204 631 2620 231 3826 -200 602 -501 1104 -905 1509 -350 350 -717
576 -1144 705 -674 204 -1372 114 -2047 -264 -671 -375 -1279 -1083 -1650
-1922 -291 -658 -443 -1350 -461 -2105 -11 -481 60 -1036 191 -1496 19 -66 35
-126 35 -133 0 -10 -28 -12 -132 -7 -73 3 -191 9 -263 11 -71 3 -164 8 -205
10 -41 2 -163 7 -270 11 -107 3 -198 9 -202 12 -8 8 -20 81 -43 257 -117 897
-68 1847 141 2738 433 1842 1537 3393 2924 4109 483 249 1011 403 1515 442
118 9 585 -3 695 -19z m5815 -485 c556 -95 1020 -482 1205 -1005 60 -171 78
-281 105 -625 8 -107 19 -249 25 -315 13 -157 45 -543 76 -925 13 -168 29
-359 34 -425 6 -66 19 -232 30 -370 11 -137 24 -304 30 -370 13 -148 44 -527
80 -975 11 -135 27 -333 36 -440 31 -375 -3 -646 -118 -934 -228 -576 -733
-991 -1348 -1107 -166 -32 -403 -31 -1115 1 -299 14 -453 20 -673 29 -106 4
-195 11 -198 14 -4 4 16 93 45 199 161 610 249 1174 277 1791 4 81 10 149 13
151 3 2 132 7 286 10 154 3 333 9 398 12 l117 7 0 43 c0 24 -18 373 -40 776
-22 403 -56 1023 -75 1378 -48 888 -57 1044 -61 1049 -6 7 -69 -2 -914 -125
-102 -14 -210 -28 -240 -31 l-55 -4 -49 113 c-213 492 -577 1061 -933 1454
-68 76 -86 104 -64 104 8 0 200 39 491 100 154 33 532 112 768 160 226 47 414
87 597 125 636 133 688 143 803 154 131 13 329 5 467 -19z m-6059 -1521 c343
-117 607 -260 818 -444 88 -77 199 -209 236 -279 l22 -41 -87 -285 c-86 -281
-154 -503 -279 -915 -36 -115 -97 -316 -136 -445 -140 -457 -160 -525 -160
-543 0 -9 20 -50 44 -90 38 -63 201 -339 437 -736 l73 -123 155 6 c607 23 803
28 810 20 17 -18 -36 -385 -95 -653 -84 -383 -205 -725 -390 -1105 l-87 -178
-126 6 c-69 3 -193 8 -276 11 -82 3 -181 8 -220 10 -38 3 -150 8 -247 11 -98
4 -223 9 -278 13 l-100 6 -126 265 c-69 146 -141 297 -159 335 -18 39 -56 120
-85 180 -29 61 -65 137 -80 170 -15 33 -49 105 -75 160 -62 132 -273 589 -295
640 -10 22 -35 76 -55 120 -55 119 -305 676 -305 681 0 2 -9 24 -21 48 l-20
44 71 238 c39 132 82 273 95 314 13 41 87 289 165 550 78 261 150 502 160 535
11 33 92 303 180 600 268 897 276 925 284 925 2 0 70 -23 152 -51z m-2200
-589 c29 -118 142 -570 249 -1005 108 -434 238 -961 290 -1169 l95 -379 -77
-166 c-42 -91 -114 -247 -161 -346 -46 -99 -99 -211 -117 -250 -159 -340 -559
-1167 -743 -1535 l-97 -195 -35 1 c-355 9 -843 33 -851 42 -9 9 -69 189 -108
323 -97 336 -155 690 -177 1087 -3 67 -5 122 -3 122 5 1 219 9 454 18 l179 7
103 215 c56 118 141 298 188 400 l85 185 -30 195 c-17 107 -37 240 -46 295 -8
55 -21 141 -29 190 -16 100 -79 507 -130 835 l-34 215 41 75 c106 195 250 394
450 621 138 158 426 441 442 436 5 -2 33 -99 62 -217z m-2116 66 c0 -3 -43
-87 -94 -188 -171 -330 -320 -682 -437 -1028 -34 -102 -66 -189 -70 -194 -5
-6 -124 -26 -264 -47 -141 -20 -258 -39 -260 -41 -5 -5 -28 -273 -80 -923 -14
-176 -36 -457 -50 -625 -13 -168 -27 -345 -30 -395 -3 -49 -9 -103 -12 -119
l-5 -29 171 7 171 7 0 -278 c0 -375 16 -626 61 -981 24 -192 24 -183 -3 -178
-13 3 -106 8 -208 11 -467 15 -547 26 -640 84 -238 147 -390 516 -390 946 0
45 22 331 50 636 27 305 66 732 85 949 81 899 96 1059 111 1140 21 116 102
356 154 460 116 231 285 422 445 502 71 36 128 51 405 108 135 28 380 80 545
114 286 61 345 71 345 62z"/>
<path d="M24947 8049 c-20 -11 -49 -38 -65 -61 l-27 -41 -3 -281 c-2 -155 -1
-304 3 -333 7 -60 36 -108 84 -140 l34 -23 424 0 c464 0 455 -1 507 60 44 52
48 90 44 414 l-3 303 -28 41 c-15 23 -45 51 -67 62 -37 19 -57 20 -452 20
-392 -1 -415 -2 -451 -21z"/>
</g>
</svg>
